{"glyphs":{"0":{"ha":1003,"x_min":0,"x_max":0,"o":"m 502 -25 b 975 486 797 -25 975 147 b 502 998 975 826 797 998 b 29 486 207 998 29 826 b 502 -25 29 147 207 -25 z m 502 196 b 286 486 369 196 286 285 b 502 778 286 689 369 778 b 718 486 635 778 718 689 b 502 196 718 285 635 196 z "},"1":{"ha":825,"x_min":0,"x_max":0,"o":"m 571 200 l 571 972 l 310 972 b 73 868 229 896 149 868 l 73 649 b 310 719 149 649 238 656 l 310 200 l 52 200 l 52 0 l 773 0 l 773 200 z "},"2":{"ha":905,"x_min":0,"x_max":0,"o":"m 870 694 b 457 998 870 888 723 998 b 45 660 185 998 45 878 l 299 660 b 470 788 297 757 378 788 b 616 683 578 788 616 742 b 35 126 616 497 35 552 l 35 0 l 865 0 l 865 200 l 330 200 b 870 694 388 426 870 348 z "},"3":{"ha":940,"x_min":0,"x_max":0,"o":"m 457 -25 b 905 266 730 -25 905 86 b 719 503 905 394 825 475 l 719 519 b 869 731 804 557 869 623 b 465 998 869 888 730 998 b 56 663 201 998 54 888 l 289 663 b 463 791 289 752 355 791 b 633 690 564 791 633 756 b 433 575 633 642 598 575 l 390 575 l 390 421 l 433 421 b 647 295 601 421 647 351 b 451 182 647 222 571 182 b 270 306 345 182 274 213 l 35 306 b 457 -25 34 80 171 -25 z "},"4":{"ha":692,"x_min":0,"x_max":0,"o":"m 117 228 l 117 228 b 153 170 147 228 153 207 b 117 112 153 134 147 112 b 106 113 113 112 109 112 l 106 227 b 117 228 110 228 113 228 z m 293 186 l 247 186 l 247 226 l 301 226 l 301 255 l 213 255 l 213 87 l 301 87 l 301 115 l 247 115 l 247 159 l 293 159 z m 115 84 l 115 84 b 186 170 167 84 186 111 b 116 257 186 228 168 257 b 73 252 104 257 88 255 l 73 87 b 115 84 88 84 105 84 z m 331 255 l 331 255 b 323 87 328 214 324 141 l 355 87 b 358 207 355 126 356 168 l 359 207 l 382 112 l 413 112 l 436 207 b 440 87 439 168 440 126 l 473 87 b 466 255 471 141 469 214 l 420 255 l 398 162 l 376 255 z m 558 84 l 558 84 b 620 170 604 84 620 111 b 558 257 620 229 604 257 b 497 170 512 257 497 229 b 558 84 497 111 512 84 z m 558 228 b 587 170 582 228 587 208 b 558 112 587 133 582 112 b 530 170 535 112 530 133 b 558 228 530 208 535 228 z m 546 574 l 546 574 b 366 358 450 574 366 358 b 558 441 414 405 475 432 b 618 501 582 444 618 465 b 546 574 618 525 606 574 z m 161 514 l 161 514 b 89 441 113 514 89 478 b 161 381 89 405 125 381 b 341 297 234 381 294 358 b 161 514 341 297 270 514 z m 363 686 l 363 686 b 260 685 329 720 286 711 b 271 591 236 659 245 617 b 341 405 323 542 350 481 b 363 686 341 405 441 611 z "},"5":{"ha":922,"x_min":0,"x_max":0,"o":"m 451 -25 b 888 324 731 -25 888 109 b 535 644 888 536 727 644 b 313 584 418 644 344 610 l 345 773 l 804 773 l 804 972 l 152 972 l 52 414 l 286 414 b 462 488 316 451 370 488 b 642 337 576 488 642 429 b 449 181 642 248 573 181 b 274 301 359 181 284 215 l 41 301 b 451 -25 37 87 177 -25 z "},"6":{"ha":921,"x_min":0,"x_max":0,"o":"m 512 626 b 270 565 419 626 329 610 b 479 801 267 763 381 801 b 667 688 574 801 650 767 l 877 688 b 479 998 876 892 719 998 b 27 487 234 998 27 872 b 470 -25 27 183 142 -25 b 896 313 745 -25 896 109 b 512 626 896 528 728 626 z m 468 170 b 279 318 353 170 279 228 b 468 462 279 410 350 462 b 660 318 587 462 660 409 b 468 170 660 228 583 170 z "},"7":{"ha":880,"x_min":0,"x_max":0,"o":"m 35 972 l 35 760 l 579 760 l 94 0 l 369 0 l 851 760 l 851 972 z "},"8":{"ha":962,"x_min":0,"x_max":0,"o":"m 481 -25 b 927 280 807 -25 927 113 b 758 535 927 396 867 480 l 758 551 b 861 738 821 589 861 657 b 481 998 861 885 741 998 b 103 738 222 998 103 885 b 204 551 103 657 141 589 l 204 535 b 35 280 95 480 35 396 b 481 -25 35 113 155 -25 z m 481 602 b 332 708 381 602 332 644 b 481 817 332 777 384 817 b 630 708 579 817 630 777 b 481 602 630 644 582 602 z m 481 174 b 288 311 350 174 288 231 b 481 448 288 391 351 448 b 674 311 612 448 674 391 b 481 174 674 231 612 174 z "},"9":{"ha":921,"x_min":0,"x_max":0,"o":"m 451 998 b 25 660 176 998 25 863 b 410 346 25 444 193 346 b 652 407 502 346 593 362 b 442 171 654 209 541 171 b 255 285 347 171 271 205 l 44 285 b 442 -25 45 80 203 -25 b 895 485 688 -25 895 101 b 451 998 895 789 779 998 z m 454 510 b 262 654 334 510 262 564 b 454 802 262 744 338 802 b 642 654 568 802 642 744 b 454 510 642 563 572 510 z "}," ":{"ha":295,"x_min":0,"x_max":0,"o":""},"!":{"ha":692,"x_min":0,"x_max":0,"o":"m 117 228 l 117 228 b 153 170 147 228 153 207 b 117 112 153 134 147 112 b 106 113 113 112 109 112 l 106 227 b 117 228 110 228 113 228 z m 293 186 l 247 186 l 247 226 l 301 226 l 301 255 l 213 255 l 213 87 l 301 87 l 301 115 l 247 115 l 247 159 l 293 159 z m 115 84 l 115 84 b 186 170 167 84 186 111 b 116 257 186 228 168 257 b 73 252 104 257 88 255 l 73 87 b 115 84 88 84 105 84 z m 331 255 l 331 255 b 323 87 328 214 324 141 l 355 87 b 358 207 355 126 356 168 l 359 207 l 382 112 l 413 112 l 436 207 b 440 87 439 168 440 126 l 473 87 b 466 255 471 141 469 214 l 420 255 l 398 162 l 376 255 z m 558 84 l 558 84 b 620 170 604 84 620 111 b 558 257 620 229 604 257 b 497 170 512 257 497 229 b 558 84 497 111 512 84 z m 558 228 b 587 170 582 228 587 208 b 558 112 587 133 582 112 b 530 170 535 112 530 133 b 558 228 530 208 535 228 z m 546 574 l 546 574 b 366 358 450 574 366 358 b 558 441 414 405 475 432 b 618 501 582 444 618 465 b 546 574 618 525 606 574 z m 161 514 l 161 514 b 89 441 113 514 89 478 b 161 381 89 405 125 381 b 341 297 234 381 294 358 b 161 514 341 297 270 514 z m 363 686 l 363 686 b 260 685 329 720 286 711 b 271 591 236 659 245 617 b 341 405 323 542 350 481 b 363 686 341 405 441 611 z "},"\"":{"ha":692,"x_min":0,"x_max":0,"o":"m 117 228 l 117 228 b 153 170 147 228 153 207 b 117 112 153 134 147 112 b 106 113 113 112 109 112 l 106 227 b 117 228 110 228 113 228 z m 293 186 l 247 186 l 247 226 l 301 226 l 301 255 l 213 255 l 213 87 l 301 87 l 301 115 l 247 115 l 247 159 l 293 159 z m 115 84 l 115 84 b 186 170 167 84 186 111 b 116 257 186 228 168 257 b 73 252 104 257 88 255 l 73 87 b 115 84 88 84 105 84 z m 331 255 l 331 255 b 323 87 328 214 324 141 l 355 87 b 358 207 355 126 356 168 l 359 207 l 382 112 l 413 112 l 436 207 b 440 87 439 168 440 126 l 473 87 b 466 255 471 141 469 214 l 420 255 l 398 162 l 376 255 z m 558 84 l 558 84 b 620 170 604 84 620 111 b 558 257 620 229 604 257 b 497 170 512 257 497 229 b 558 84 497 111 512 84 z m 558 228 b 587 170 582 228 587 208 b 558 112 587 133 582 112 b 530 170 535 112 530 133 b 558 228 530 208 535 228 z m 546 574 l 546 574 b 366 358 450 574 366 358 b 558 441 414 405 475 432 b 618 501 582 444 618 465 b 546 574 618 525 606 574 z m 161 514 l 161 514 b 89 441 113 514 89 478 b 161 381 89 405 125 381 b 341 297 234 381 294 358 b 161 514 341 297 270 514 z m 363 686 l 363 686 b 260 685 329 720 286 711 b 271 591 236 659 245 617 b 341 405 323 542 350 481 b 363 686 341 405 441 611 z "},"#":{"ha":692,"x_min":0,"x_max":0,"o":"m 117 228 l 117 228 b 153 170 147 228 153 207 b 117 112 153 134 147 112 b 106 113 113 112 109 112 l 106 227 b 117 228 110 228 113 228 z m 293 186 l 247 186 l 247 226 l 301 226 l 301 255 l 213 255 l 213 87 l 301 87 l 301 115 l 247 115 l 247 159 l 293 159 z m 115 84 l 115 84 b 186 170 167 84 186 111 b 116 257 186 228 168 257 b 73 252 104 257 88 255 l 73 87 b 115 84 88 84 105 84 z m 331 255 l 331 255 b 323 87 328 214 324 141 l 355 87 b 358 207 355 126 356 168 l 359 207 l 382 112 l 413 112 l 436 207 b 440 87 439 168 440 126 l 473 87 b 466 255 471 141 469 214 l 420 255 l 398 162 l 376 255 z m 558 84 l 558 84 b 620 170 604 84 620 111 b 558 257 620 229 604 257 b 497 170 512 257 497 229 b 558 84 497 111 512 84 z m 558 228 b 587 170 582 228 587 208 b 558 112 587 133 582 112 b 530 170 535 112 530 133 b 558 228 530 208 535 228 z m 546 574 l 546 574 b 366 358 450 574 366 358 b 558 441 414 405 475 432 b 618 501 582 444 618 465 b 546 574 618 525 606 574 z m 161 514 l 161 514 b 89 441 113 514 89 478 b 161 381 89 405 125 381 b 341 297 234 381 294 358 b 161 514 341 297 270 514 z m 363 686 l 363 686 b 260 685 329 720 286 711 b 271 591 236 659 245 617 b 341 405 323 542 350 481 b 363 686 341 405 441 611 z "},"$":{"ha":692,"x_min":0,"x_max":0,"o":"m 117 228 l 117 228 b 153 170 147 228 153 207 b 117 112 153 134 147 112 b 106 113 113 112 109 112 l 106 227 b 117 228 110 228 113 228 z m 293 186 l 247 186 l 247 226 l 301 226 l 301 255 l 213 255 l 213 87 l 301 87 l 301 115 l 247 115 l 247 159 l 293 159 z m 115 84 l 115 84 b 186 170 167 84 186 111 b 116 257 186 228 168 257 b 73 252 104 257 88 255 l 73 87 b 115 84 88 84 105 84 z m 331 255 l 331 255 b 323 87 328 214 324 141 l 355 87 b 358 207 355 126 356 168 l 359 207 l 382 112 l 413 112 l 436 207 b 440 87 439 168 440 126 l 473 87 b 466 255 471 141 469 214 l 420 255 l 398 162 l 376 255 z m 558 84 l 558 84 b 620 170 604 84 620 111 b 558 257 620 229 604 257 b 497 170 512 257 497 229 b 558 84 497 111 512 84 z m 558 228 b 587 170 582 228 587 208 b 558 112 587 133 582 112 b 530 170 535 112 530 133 b 558 228 530 208 535 228 z m 546 574 l 546 574 b 366 358 450 574 366 358 b 558 441 414 405 475 432 b 618 501 582 444 618 465 b 546 574 618 525 606 574 z m 161 514 l 161 514 b 89 441 113 514 89 478 b 161 381 89 405 125 381 b 341 297 234 381 294 358 b 161 514 341 297 270 514 z m 363 686 l 363 686 b 260 685 329 720 286 711 b 271 591 236 659 245 617 b 341 405 323 542 350 481 b 363 686 341 405 441 611 z "},"%":{"ha":692,"x_min":0,"x_max":0,"o":"m 117 228 l 117 228 b 153 170 147 228 153 207 b 117 112 153 134 147 112 b 106 113 113 112 109 112 l 106 227 b 117 228 110 228 113 228 z m 293 186 l 247 186 l 247 226 l 301 226 l 301 255 l 213 255 l 213 87 l 301 87 l 301 115 l 247 115 l 247 159 l 293 159 z m 115 84 l 115 84 b 186 170 167 84 186 111 b 116 257 186 228 168 257 b 73 252 104 257 88 255 l 73 87 b 115 84 88 84 105 84 z m 331 255 l 331 255 b 323 87 328 214 324 141 l 355 87 b 358 207 355 126 356 168 l 359 207 l 382 112 l 413 112 l 436 207 b 440 87 439 168 440 126 l 473 87 b 466 255 471 141 469 214 l 420 255 l 398 162 l 376 255 z m 558 84 l 558 84 b 620 170 604 84 620 111 b 558 257 620 229 604 257 b 497 170 512 257 497 229 b 558 84 497 111 512 84 z m 558 228 b 587 170 582 228 587 208 b 558 112 587 133 582 112 b 530 170 535 112 530 133 b 558 228 530 208 535 228 z m 546 574 l 546 574 b 366 358 450 574 366 358 b 558 441 414 405 475 432 b 618 501 582 444 618 465 b 546 574 618 525 606 574 z m 161 514 l 161 514 b 89 441 113 514 89 478 b 161 381 89 405 125 381 b 341 297 234 381 294 358 b 161 514 341 297 270 514 z m 363 686 l 363 686 b 260 685 329 720 286 711 b 271 591 236 659 245 617 b 341 405 323 542 350 481 b 363 686 341 405 441 611 z "},"&":{"ha":692,"x_min":0,"x_max":0,"o":"m 117 228 l 117 228 b 153 170 147 228 153 207 b 117 112 153 134 147 112 b 106 113 113 112 109 112 l 106 227 b 117 228 110 228 113 228 z m 293 186 l 247 186 l 247 226 l 301 226 l 301 255 l 213 255 l 213 87 l 301 87 l 301 115 l 247 115 l 247 159 l 293 159 z m 115 84 l 115 84 b 186 170 167 84 186 111 b 116 257 186 228 168 257 b 73 252 104 257 88 255 l 73 87 b 115 84 88 84 105 84 z m 331 255 l 331 255 b 323 87 328 214 324 141 l 355 87 b 358 207 355 126 356 168 l 359 207 l 382 112 l 413 112 l 436 207 b 440 87 439 168 440 126 l 473 87 b 466 255 471 141 469 214 l 420 255 l 398 162 l 376 255 z m 558 84 l 558 84 b 620 170 604 84 620 111 b 558 257 620 229 604 257 b 497 170 512 257 497 229 b 558 84 497 111 512 84 z m 558 228 b 587 170 582 228 587 208 b 558 112 587 133 582 112 b 530 170 535 112 530 133 b 558 228 530 208 535 228 z m 546 574 l 546 574 b 366 358 450 574 366 358 b 558 441 414 405 475 432 b 618 501 582 444 618 465 b 546 574 618 525 606 574 z m 161 514 l 161 514 b 89 441 113 514 89 478 b 161 381 89 405 125 381 b 341 297 234 381 294 358 b 161 514 341 297 270 514 z m 363 686 l 363 686 b 260 685 329 720 286 711 b 271 591 236 659 245 617 b 341 405 323 542 350 481 b 363 686 341 405 441 611 z "},"'":{"ha":692,"x_min":0,"x_max":0,"o":"m 117 228 l 117 228 b 153 170 147 228 153 207 b 117 112 153 134 147 112 b 106 113 113 112 109 112 l 106 227 b 117 228 110 228 113 228 z m 293 186 l 247 186 l 247 226 l 301 226 l 301 255 l 213 255 l 213 87 l 301 87 l 301 115 l 247 115 l 247 159 l 293 159 z m 115 84 l 115 84 b 186 170 167 84 186 111 b 116 257 186 228 168 257 b 73 252 104 257 88 255 l 73 87 b 115 84 88 84 105 84 z m 331 255 l 331 255 b 323 87 328 214 324 141 l 355 87 b 358 207 355 126 356 168 l 359 207 l 382 112 l 413 112 l 436 207 b 440 87 439 168 440 126 l 473 87 b 466 255 471 141 469 214 l 420 255 l 398 162 l 376 255 z m 558 84 l 558 84 b 620 170 604 84 620 111 b 558 257 620 229 604 257 b 497 170 512 257 497 229 b 558 84 497 111 512 84 z m 558 228 b 587 170 582 228 587 208 b 558 112 587 133 582 112 b 530 170 535 112 530 133 b 558 228 530 208 535 228 z m 546 574 l 546 574 b 366 358 450 574 366 358 b 558 441 414 405 475 432 b 618 501 582 444 618 465 b 546 574 618 525 606 574 z m 161 514 l 161 514 b 89 441 113 514 89 478 b 161 381 89 405 125 381 b 341 297 234 381 294 358 b 161 514 341 297 270 514 z m 363 686 l 363 686 b 260 685 329 720 286 711 b 271 591 236 659 245 617 b 341 405 323 542 350 481 b 363 686 341 405 441 611 z "},"(":{"ha":692,"x_min":0,"x_max":0,"o":"m 117 228 l 117 228 b 153 170 147 228 153 207 b 117 112 153 134 147 112 b 106 113 113 112 109 112 l 106 227 b 117 228 110 228 113 228 z m 293 186 l 247 186 l 247 226 l 301 226 l 301 255 l 213 255 l 213 87 l 301 87 l 301 115 l 247 115 l 247 159 l 293 159 z m 115 84 l 115 84 b 186 170 167 84 186 111 b 116 257 186 228 168 257 b 73 252 104 257 88 255 l 73 87 b 115 84 88 84 105 84 z m 331 255 l 331 255 b 323 87 328 214 324 141 l 355 87 b 358 207 355 126 356 168 l 359 207 l 382 112 l 413 112 l 436 207 b 440 87 439 168 440 126 l 473 87 b 466 255 471 141 469 214 l 420 255 l 398 162 l 376 255 z m 558 84 l 558 84 b 620 170 604 84 620 111 b 558 257 620 229 604 257 b 497 170 512 257 497 229 b 558 84 497 111 512 84 z m 558 228 b 587 170 582 228 587 208 b 558 112 587 133 582 112 b 530 170 535 112 530 133 b 558 228 530 208 535 228 z m 546 574 l 546 574 b 366 358 450 574 366 358 b 558 441 414 405 475 432 b 618 501 582 444 618 465 b 546 574 618 525 606 574 z m 161 514 l 161 514 b 89 441 113 514 89 478 b 161 381 89 405 125 381 b 341 297 234 381 294 358 b 161 514 341 297 270 514 z m 363 686 l 363 686 b 260 685 329 720 286 711 b 271 591 236 659 245 617 b 341 405 323 542 350 481 b 363 686 341 405 441 611 z "},")":{"ha":692,"x_min":0,"x_max":0,"o":"m 117 228 l 117 228 b 153 170 147 228 153 207 b 117 112 153 134 147 112 b 106 113 113 112 109 112 l 106 227 b 117 228 110 228 113 228 z m 293 186 l 247 186 l 247 226 l 301 226 l 301 255 l 213 255 l 213 87 l 301 87 l 301 115 l 247 115 l 247 159 l 293 159 z m 115 84 l 115 84 b 186 170 167 84 186 111 b 116 257 186 228 168 257 b 73 252 104 257 88 255 l 73 87 b 115 84 88 84 105 84 z m 331 255 l 331 255 b 323 87 328 214 324 141 l 355 87 b 358 207 355 126 356 168 l 359 207 l 382 112 l 413 112 l 436 207 b 440 87 439 168 440 126 l 473 87 b 466 255 471 141 469 214 l 420 255 l 398 162 l 376 255 z m 558 84 l 558 84 b 620 170 604 84 620 111 b 558 257 620 229 604 257 b 497 170 512 257 497 229 b 558 84 497 111 512 84 z m 558 228 b 587 170 582 228 587 208 b 558 112 587 133 582 112 b 530 170 535 112 530 133 b 558 228 530 208 535 228 z m 546 574 l 546 574 b 366 358 450 574 366 358 b 558 441 414 405 475 432 b 618 501 582 444 618 465 b 546 574 618 525 606 574 z m 161 514 l 161 514 b 89 441 113 514 89 478 b 161 381 89 405 125 381 b 341 297 234 381 294 358 b 161 514 341 297 270 514 z m 363 686 l 363 686 b 260 685 329 720 286 711 b 271 591 236 659 245 617 b 341 405 323 542 350 481 b 363 686 341 405 441 611 z "},"*":{"ha":692,"x_min":0,"x_max":0,"o":"m 117 228 l 117 228 b 153 170 147 228 153 207 b 117 112 153 134 147 112 b 106 113 113 112 109 112 l 106 227 b 117 228 110 228 113 228 z m 293 186 l 247 186 l 247 226 l 301 226 l 301 255 l 213 255 l 213 87 l 301 87 l 301 115 l 247 115 l 247 159 l 293 159 z m 115 84 l 115 84 b 186 170 167 84 186 111 b 116 257 186 228 168 257 b 73 252 104 257 88 255 l 73 87 b 115 84 88 84 105 84 z m 331 255 l 331 255 b 323 87 328 214 324 141 l 355 87 b 358 207 355 126 356 168 l 359 207 l 382 112 l 413 112 l 436 207 b 440 87 439 168 440 126 l 473 87 b 466 255 471 141 469 214 l 420 255 l 398 162 l 376 255 z m 558 84 l 558 84 b 620 170 604 84 620 111 b 558 257 620 229 604 257 b 497 170 512 257 497 229 b 558 84 497 111 512 84 z m 558 228 b 587 170 582 228 587 208 b 558 112 587 133 582 112 b 530 170 535 112 530 133 b 558 228 530 208 535 228 z m 546 574 l 546 574 b 366 358 450 574 366 358 b 558 441 414 405 475 432 b 618 501 582 444 618 465 b 546 574 618 525 606 574 z m 161 514 l 161 514 b 89 441 113 514 89 478 b 161 381 89 405 125 381 b 341 297 234 381 294 358 b 161 514 341 297 270 514 z m 363 686 l 363 686 b 260 685 329 720 286 711 b 271 591 236 659 245 617 b 341 405 323 542 350 481 b 363 686 341 405 441 611 z "},"+":{"ha":692,"x_min":0,"x_max":0,"o":"m 117 228 l 117 228 b 153 170 147 228 153 207 b 117 112 153 134 147 112 b 106 113 113 112 109 112 l 106 227 b 117 228 110 228 113 228 z m 293 186 l 247 186 l 247 226 l 301 226 l 301 255 l 213 255 l 213 87 l 301 87 l 301 115 l 247 115 l 247 159 l 293 159 z m 115 84 l 115 84 b 186 170 167 84 186 111 b 116 257 186 228 168 257 b 73 252 104 257 88 255 l 73 87 b 115 84 88 84 105 84 z m 331 255 l 331 255 b 323 87 328 214 324 141 l 355 87 b 358 207 355 126 356 168 l 359 207 l 382 112 l 413 112 l 436 207 b 440 87 439 168 440 126 l 473 87 b 466 255 471 141 469 214 l 420 255 l 398 162 l 376 255 z m 558 84 l 558 84 b 620 170 604 84 620 111 b 558 257 620 229 604 257 b 497 170 512 257 497 229 b 558 84 497 111 512 84 z m 558 228 b 587 170 582 228 587 208 b 558 112 587 133 582 112 b 530 170 535 112 530 133 b 558 228 530 208 535 228 z m 546 574 l 546 574 b 366 358 450 574 366 358 b 558 441 414 405 475 432 b 618 501 582 444 618 465 b 546 574 618 525 606 574 z m 161 514 l 161 514 b 89 441 113 514 89 478 b 161 381 89 405 125 381 b 341 297 234 381 294 358 b 161 514 341 297 270 514 z m 363 686 l 363 686 b 260 685 329 720 286 711 b 271 591 236 659 245 617 b 341 405 323 542 350 481 b 363 686 341 405 441 611 z "},",":{"ha":403,"x_min":0,"x_max":0,"o":"m 138 -270 l 300 -270 b 362 168 329 -212 362 -61 l 362 219 l 41 219 l 41 0 l 155 0 b 138 -270 156 -79 152 -186 z "},"-":{"ha":692,"x_min":0,"x_max":0,"o":"m 117 228 l 117 228 b 153 170 147 228 153 207 b 117 112 153 134 147 112 b 106 113 113 112 109 112 l 106 227 b 117 228 110 228 113 228 z m 293 186 l 247 186 l 247 226 l 301 226 l 301 255 l 213 255 l 213 87 l 301 87 l 301 115 l 247 115 l 247 159 l 293 159 z m 115 84 l 115 84 b 186 170 167 84 186 111 b 116 257 186 228 168 257 b 73 252 104 257 88 255 l 73 87 b 115 84 88 84 105 84 z m 331 255 l 331 255 b 323 87 328 214 324 141 l 355 87 b 358 207 355 126 356 168 l 359 207 l 382 112 l 413 112 l 436 207 b 440 87 439 168 440 126 l 473 87 b 466 255 471 141 469 214 l 420 255 l 398 162 l 376 255 z m 558 84 l 558 84 b 620 170 604 84 620 111 b 558 257 620 229 604 257 b 497 170 512 257 497 229 b 558 84 497 111 512 84 z m 558 228 b 587 170 582 228 587 208 b 558 112 587 133 582 112 b 530 170 535 112 530 133 b 558 228 530 208 535 228 z m 546 574 l 546 574 b 366 358 450 574 366 358 b 558 441 414 405 475 432 b 618 501 582 444 618 465 b 546 574 618 525 606 574 z m 161 514 l 161 514 b 89 441 113 514 89 478 b 161 381 89 405 125 381 b 341 297 234 381 294 358 b 161 514 341 297 270 514 z m 363 686 l 363 686 b 260 685 329 720 286 711 b 271 591 236 659 245 617 b 341 405 323 542 350 481 b 363 686 341 405 441 611 z "},".":{"ha":358,"x_min":0,"x_max":0,"o":"m 179 -19 b 315 116 253 -19 315 43 b 179 249 315 189 253 249 b 44 116 105 249 44 189 b 179 -19 44 43 105 -19 z "},"/":{"ha":692,"x_min":0,"x_max":0,"o":"m 117 228 l 117 228 b 153 170 147 228 153 207 b 117 112 153 134 147 112 b 106 113 113 112 109 112 l 106 227 b 117 228 110 228 113 228 z m 293 186 l 247 186 l 247 226 l 301 226 l 301 255 l 213 255 l 213 87 l 301 87 l 301 115 l 247 115 l 247 159 l 293 159 z m 115 84 l 115 84 b 186 170 167 84 186 111 b 116 257 186 228 168 257 b 73 252 104 257 88 255 l 73 87 b 115 84 88 84 105 84 z m 331 255 l 331 255 b 323 87 328 214 324 141 l 355 87 b 358 207 355 126 356 168 l 359 207 l 382 112 l 413 112 l 436 207 b 440 87 439 168 440 126 l 473 87 b 466 255 471 141 469 214 l 420 255 l 398 162 l 376 255 z m 558 84 l 558 84 b 620 170 604 84 620 111 b 558 257 620 229 604 257 b 497 170 512 257 497 229 b 558 84 497 111 512 84 z m 558 228 b 587 170 582 228 587 208 b 558 112 587 133 582 112 b 530 170 535 112 530 133 b 558 228 530 208 535 228 z m 546 574 l 546 574 b 366 358 450 574 366 358 b 558 441 414 405 475 432 b 618 501 582 444 618 465 b 546 574 618 525 606 574 z m 161 514 l 161 514 b 89 441 113 514 89 478 b 161 381 89 405 125 381 b 341 297 234 381 294 358 b 161 514 341 297 270 514 z m 363 686 l 363 686 b 260 685 329 720 286 711 b 271 591 236 659 245 617 b 341 405 323 542 350 481 b 363 686 341 405 441 611 z "},":":{"ha":358,"x_min":0,"x_max":0,"o":"m 179 600 b 315 734 253 600 315 661 b 179 867 315 807 253 867 b 44 734 105 867 44 807 b 179 600 44 661 105 600 z m 179 94 b 315 228 253 94 315 155 b 179 361 315 301 253 361 b 44 228 105 361 44 301 b 179 94 44 155 105 94 z "},";":{"ha":409,"x_min":0,"x_max":0,"o":"m 209 600 b 345 734 284 600 345 661 b 209 867 345 807 284 867 b 74 734 135 867 74 807 b 209 600 74 661 135 600 z m 141 -149 l 303 -149 b 366 288 332 -91 366 59 l 366 339 l 44 339 l 44 120 l 159 120 b 141 -149 160 42 155 -66 z "},"<":{"ha":692,"x_min":0,"x_max":0,"o":"m 117 228 l 117 228 b 153 170 147 228 153 207 b 117 112 153 134 147 112 b 106 113 113 112 109 112 l 106 227 b 117 228 110 228 113 228 z m 293 186 l 247 186 l 247 226 l 301 226 l 301 255 l 213 255 l 213 87 l 301 87 l 301 115 l 247 115 l 247 159 l 293 159 z m 115 84 l 115 84 b 186 170 167 84 186 111 b 116 257 186 228 168 257 b 73 252 104 257 88 255 l 73 87 b 115 84 88 84 105 84 z m 331 255 l 331 255 b 323 87 328 214 324 141 l 355 87 b 358 207 355 126 356 168 l 359 207 l 382 112 l 413 112 l 436 207 b 440 87 439 168 440 126 l 473 87 b 466 255 471 141 469 214 l 420 255 l 398 162 l 376 255 z m 558 84 l 558 84 b 620 170 604 84 620 111 b 558 257 620 229 604 257 b 497 170 512 257 497 229 b 558 84 497 111 512 84 z m 558 228 b 587 170 582 228 587 208 b 558 112 587 133 582 112 b 530 170 535 112 530 133 b 558 228 530 208 535 228 z m 546 574 l 546 574 b 366 358 450 574 366 358 b 558 441 414 405 475 432 b 618 501 582 444 618 465 b 546 574 618 525 606 574 z m 161 514 l 161 514 b 89 441 113 514 89 478 b 161 381 89 405 125 381 b 341 297 234 381 294 358 b 161 514 341 297 270 514 z m 363 686 l 363 686 b 260 685 329 720 286 711 b 271 591 236 659 245 617 b 341 405 323 542 350 481 b 363 686 341 405 441 611 z "},"=":{"ha":692,"x_min":0,"x_max":0,"o":"m 117 228 l 117 228 b 153 170 147 228 153 207 b 117 112 153 134 147 112 b 106 113 113 112 109 112 l 106 227 b 117 228 110 228 113 228 z m 293 186 l 247 186 l 247 226 l 301 226 l 301 255 l 213 255 l 213 87 l 301 87 l 301 115 l 247 115 l 247 159 l 293 159 z m 115 84 l 115 84 b 186 170 167 84 186 111 b 116 257 186 228 168 257 b 73 252 104 257 88 255 l 73 87 b 115 84 88 84 105 84 z m 331 255 l 331 255 b 323 87 328 214 324 141 l 355 87 b 358 207 355 126 356 168 l 359 207 l 382 112 l 413 112 l 436 207 b 440 87 439 168 440 126 l 473 87 b 466 255 471 141 469 214 l 420 255 l 398 162 l 376 255 z m 558 84 l 558 84 b 620 170 604 84 620 111 b 558 257 620 229 604 257 b 497 170 512 257 497 229 b 558 84 497 111 512 84 z m 558 228 b 587 170 582 228 587 208 b 558 112 587 133 582 112 b 530 170 535 112 530 133 b 558 228 530 208 535 228 z m 546 574 l 546 574 b 366 358 450 574 366 358 b 558 441 414 405 475 432 b 618 501 582 444 618 465 b 546 574 618 525 606 574 z m 161 514 l 161 514 b 89 441 113 514 89 478 b 161 381 89 405 125 381 b 341 297 234 381 294 358 b 161 514 341 297 270 514 z m 363 686 l 363 686 b 260 685 329 720 286 711 b 271 591 236 659 245 617 b 341 405 323 542 350 481 b 363 686 341 405 441 611 z "},">":{"ha":692,"x_min":0,"x_max":0,"o":"m 117 228 l 117 228 b 153 170 147 228 153 207 b 117 112 153 134 147 112 b 106 113 113 112 109 112 l 106 227 b 117 228 110 228 113 228 z m 293 186 l 247 186 l 247 226 l 301 226 l 301 255 l 213 255 l 213 87 l 301 87 l 301 115 l 247 115 l 247 159 l 293 159 z m 115 84 l 115 84 b 186 170 167 84 186 111 b 116 257 186 228 168 257 b 73 252 104 257 88 255 l 73 87 b 115 84 88 84 105 84 z m 331 255 l 331 255 b 323 87 328 214 324 141 l 355 87 b 358 207 355 126 356 168 l 359 207 l 382 112 l 413 112 l 436 207 b 440 87 439 168 440 126 l 473 87 b 466 255 471 141 469 214 l 420 255 l 398 162 l 376 255 z m 558 84 l 558 84 b 620 170 604 84 620 111 b 558 257 620 229 604 257 b 497 170 512 257 497 229 b 558 84 497 111 512 84 z m 558 228 b 587 170 582 228 587 208 b 558 112 587 133 582 112 b 530 170 535 112 530 133 b 558 228 530 208 535 228 z m 546 574 l 546 574 b 366 358 450 574 366 358 b 558 441 414 405 475 432 b 618 501 582 444 618 465 b 546 574 618 525 606 574 z m 161 514 l 161 514 b 89 441 113 514 89 478 b 161 381 89 405 125 381 b 341 297 234 381 294 358 b 161 514 341 297 270 514 z m 363 686 l 363 686 b 260 685 329 720 286 711 b 271 591 236 659 245 617 b 341 405 323 542 350 481 b 363 686 341 405 441 611 z "},"?":{"ha":885,"x_min":0,"x_max":0,"o":"m 316 340 l 564 340 b 862 716 565 535 862 454 b 442 998 862 912 691 998 b 23 638 177 998 15 885 l 259 638 b 443 789 259 755 351 789 b 604 689 538 789 604 750 b 316 340 604 547 284 617 z m 440 -19 b 575 116 514 -19 575 43 b 440 249 575 189 514 249 b 304 116 366 249 304 189 b 440 -19 304 43 366 -19 z "},"@":{"ha":692,"x_min":0,"x_max":0,"o":"m 117 228 l 117 228 b 153 170 147 228 153 207 b 117 112 153 134 147 112 b 106 113 113 112 109 112 l 106 227 b 117 228 110 228 113 228 z m 293 186 l 247 186 l 247 226 l 301 226 l 301 255 l 213 255 l 213 87 l 301 87 l 301 115 l 247 115 l 247 159 l 293 159 z m 115 84 l 115 84 b 186 170 167 84 186 111 b 116 257 186 228 168 257 b 73 252 104 257 88 255 l 73 87 b 115 84 88 84 105 84 z m 331 255 l 331 255 b 323 87 328 214 324 141 l 355 87 b 358 207 355 126 356 168 l 359 207 l 382 112 l 413 112 l 436 207 b 440 87 439 168 440 126 l 473 87 b 466 255 471 141 469 214 l 420 255 l 398 162 l 376 255 z m 558 84 l 558 84 b 620 170 604 84 620 111 b 558 257 620 229 604 257 b 497 170 512 257 497 229 b 558 84 497 111 512 84 z m 558 228 b 587 170 582 228 587 208 b 558 112 587 133 582 112 b 530 170 535 112 530 133 b 558 228 530 208 535 228 z m 546 574 l 546 574 b 366 358 450 574 366 358 b 558 441 414 405 475 432 b 618 501 582 444 618 465 b 546 574 618 525 606 574 z m 161 514 l 161 514 b 89 441 113 514 89 478 b 161 381 89 405 125 381 b 341 297 234 381 294 358 b 161 514 341 297 270 514 z m 363 686 l 363 686 b 260 685 329 720 286 711 b 271 591 236 659 245 617 b 341 405 323 542 350 481 b 363 686 341 405 441 611 z "},"A":{"ha":1130,"x_min":0,"x_max":0,"o":"m 848 0 l 1118 0 l 748 972 l 382 972 l 12 0 l 281 0 l 336 152 l 794 152 z m 405 347 l 542 727 l 589 727 l 725 347 z "},"B":{"ha":1028,"x_min":0,"x_max":0,"o":"m 832 508 l 832 523 b 964 720 911 560 964 615 b 595 972 964 853 878 972 l 46 972 l 46 0 l 589 0 b 993 274 881 0 993 116 b 832 508 993 389 934 463 z m 573 771 b 714 672 668 771 714 733 b 573 578 714 615 668 578 l 308 578 l 308 771 z m 583 203 l 308 203 l 308 422 l 583 422 b 729 316 679 422 729 380 b 583 203 729 251 679 203 z "},"C":{"ha":1086,"x_min":0,"x_max":0,"o":"m 566 -32 b 1057 368 789 -32 1014 66 l 808 368 b 566 193 771 248 682 193 b 288 486 409 193 288 313 b 566 779 288 660 409 779 b 808 606 682 779 771 726 l 1057 606 b 566 1005 1014 907 788 1005 b 29 486 248 1005 29 794 b 566 -32 29 179 248 -32 z "},"D":{"ha":1067,"x_min":0,"x_max":0,"o":"m 507 972 l 46 972 l 46 0 l 507 0 b 1032 486 891 0 1032 209 b 507 972 1032 764 891 972 z m 507 220 l 308 220 l 309 753 l 507 753 b 771 486 675 753 771 663 b 507 220 771 310 675 220 z "},"E":{"ha":931,"x_min":0,"x_max":0,"o":"m 46 0 l 884 0 l 884 212 l 308 212 l 308 396 l 863 396 l 863 578 l 308 578 l 308 760 l 884 760 l 884 972 l 46 972 z "},"F":{"ha":929,"x_min":0,"x_max":0,"o":"m 46 0 l 308 0 l 308 365 l 853 365 l 853 558 l 308 558 l 308 755 l 883 755 l 883 972 l 46 972 z "},"G":{"ha":1122,"x_min":0,"x_max":0,"o":"m 1069 522 l 557 522 l 557 362 l 816 362 b 571 193 784 226 650 193 b 288 486 411 193 288 313 b 578 779 288 660 409 779 b 799 652 686 779 767 727 l 1058 652 b 573 1005 1010 902 791 1005 b 29 486 247 1005 29 794 b 551 -32 29 179 256 -32 b 912 137 723 -32 845 38 l 916 0 l 1069 0 z "},"H":{"ha":1063,"x_min":0,"x_max":0,"o":"m 755 972 l 755 595 l 308 595 l 308 972 l 46 972 l 46 0 l 308 0 l 308 377 l 755 377 l 755 0 l 1016 0 l 1016 972 z "},"I":{"ha":354,"x_min":0,"x_max":0,"o":"m 46 0 l 308 0 l 308 972 l 46 972 z "},"J":{"ha":922,"x_min":0,"x_max":0,"o":"m 449 -32 b 876 404 714 -32 876 81 l 876 972 l 616 972 l 616 392 b 454 190 616 228 532 190 b 295 362 370 190 295 230 l 35 362 b 449 -32 31 63 207 -32 z "},"K":{"ha":1045,"x_min":0,"x_max":0,"o":"m 1049 0 l 627 541 l 1029 972 l 736 972 l 324 534 l 307 534 l 307 972 l 46 972 l 46 0 l 307 0 l 307 220 l 463 383 l 480 383 l 779 0 z "},"L":{"ha":895,"x_min":0,"x_max":0,"o":"m 46 0 l 854 0 l 854 219 l 308 219 l 308 972 l 46 972 z "},"M":{"ha":1203,"x_min":0,"x_max":0,"o":"m 46 0 l 296 0 l 296 534 l 318 534 l 501 0 l 701 0 l 884 534 l 906 534 l 906 0 l 1156 0 l 1156 972 l 824 972 l 611 333 l 591 333 l 378 972 l 46 972 z "},"N":{"ha":1081,"x_min":0,"x_max":0,"o":"m 46 0 l 301 0 l 301 611 l 325 611 l 740 0 l 1035 0 l 1035 972 l 780 972 l 780 361 l 757 361 l 348 972 l 46 972 z "},"O":{"ha":1138,"x_min":0,"x_max":0,"o":"m 569 -32 b 1109 486 892 -32 1109 179 b 569 1005 1109 794 892 1005 b 29 486 245 1005 29 794 b 569 -32 29 179 245 -32 z m 569 193 b 288 486 411 193 288 308 b 569 779 288 666 411 779 b 851 486 727 779 851 666 b 569 193 851 308 727 193 z "},"P":{"ha":1012,"x_min":0,"x_max":0,"o":"m 46 0 l 308 0 l 308 244 l 571 244 b 977 609 831 244 977 367 b 569 972 977 851 831 972 l 46 972 z m 308 462 l 308 755 l 551 755 b 715 609 652 755 715 706 b 550 462 715 512 652 462 z "},"Q":{"ha":1138,"x_min":0,"x_max":0,"o":"m 1109 495 b 569 1005 1109 794 892 1005 b 29 486 245 1005 29 794 b 569 -32 29 179 245 -32 b 809 23 656 -32 742 -8 l 958 -115 b 1104 35 1013 -69 1060 -22 l 975 166 b 1109 495 1058 252 1109 361 z m 288 486 b 569 779 288 666 411 779 b 851 486 727 779 851 666 b 569 193 851 308 727 193 b 288 486 411 193 288 308 z "},"R":{"ha":1031,"x_min":0,"x_max":0,"o":"m 1006 0 l 822 330 b 979 617 916 385 979 483 b 573 972 979 853 836 972 l 46 972 l 46 0 l 308 0 l 308 277 l 598 277 l 748 0 z m 308 755 l 557 755 b 719 615 662 755 719 706 b 557 475 719 523 662 475 l 308 475 z "},"S":{"ha":987,"x_min":0,"x_max":0,"o":"m 487 -32 b 961 275 800 -34 961 75 b 532 575 961 519 720 542 l 427 594 b 300 694 337 609 300 645 b 484 800 300 758 360 800 b 699 667 622 800 685 747 l 933 667 b 488 1005 933 920 751 1005 b 49 706 205 1005 49 892 b 429 411 49 483 244 442 l 551 390 b 701 284 660 373 701 339 b 487 174 701 218 628 172 b 259 309 334 174 265 227 l 23 309 b 487 -32 20 73 177 -32 z "},"T":{"ha":1061,"x_min":0,"x_max":0,"o":"m 1021 972 l 41 972 l 41 755 l 400 755 l 400 0 l 661 0 l 661 755 l 1021 755 z "},"U":{"ha":1053,"x_min":0,"x_max":0,"o":"m 527 -32 b 1007 412 838 -32 1007 109 l 1007 972 l 747 972 l 747 418 b 527 188 747 274 675 188 b 309 418 378 188 309 274 l 309 972 l 46 972 l 46 411 b 527 -32 46 109 215 -32 z "},"V":{"ha":1130,"x_min":0,"x_max":0,"o":"m 382 0 l 748 0 l 1118 972 l 848 972 l 581 247 l 550 247 l 281 972 l 12 972 z "},"W":{"ha":1456,"x_min":0,"x_max":0,"o":"m 234 0 l 587 0 l 716 565 l 740 565 l 869 0 l 1222 0 l 1429 972 l 1166 972 l 1028 279 l 1005 279 l 834 972 l 622 972 l 451 279 l 428 279 l 291 972 l 27 972 z "},"X":{"ha":1029,"x_min":0,"x_max":0,"o":"m 6 0 l 292 0 l 502 311 l 527 311 l 737 0 l 1023 0 l 681 486 l 681 500 l 1015 972 l 733 972 l 527 674 l 502 674 l 297 972 l 14 972 l 351 500 l 351 486 z "},"Y":{"ha":1073,"x_min":0,"x_max":0,"o":"m 1067 972 l 792 972 l 549 560 l 524 560 l 282 972 l 6 972 l 406 309 l 406 0 l 667 0 l 667 308 z "},"Z":{"ha":941,"x_min":0,"x_max":0,"o":"m 29 0 l 905 0 l 905 219 l 360 219 l 360 238 l 912 762 l 912 972 l 43 972 l 43 755 l 576 755 l 576 734 l 29 212 z "},"[":{"ha":692,"x_min":0,"x_max":0,"o":"m 117 228 l 117 228 b 153 170 147 228 153 207 b 117 112 153 134 147 112 b 106 113 113 112 109 112 l 106 227 b 117 228 110 228 113 228 z m 293 186 l 247 186 l 247 226 l 301 226 l 301 255 l 213 255 l 213 87 l 301 87 l 301 115 l 247 115 l 247 159 l 293 159 z m 115 84 l 115 84 b 186 170 167 84 186 111 b 116 257 186 228 168 257 b 73 252 104 257 88 255 l 73 87 b 115 84 88 84 105 84 z m 331 255 l 331 255 b 323 87 328 214 324 141 l 355 87 b 358 207 355 126 356 168 l 359 207 l 382 112 l 413 112 l 436 207 b 440 87 439 168 440 126 l 473 87 b 466 255 471 141 469 214 l 420 255 l 398 162 l 376 255 z m 558 84 l 558 84 b 620 170 604 84 620 111 b 558 257 620 229 604 257 b 497 170 512 257 497 229 b 558 84 497 111 512 84 z m 558 228 b 587 170 582 228 587 208 b 558 112 587 133 582 112 b 530 170 535 112 530 133 b 558 228 530 208 535 228 z m 546 574 l 546 574 b 366 358 450 574 366 358 b 558 441 414 405 475 432 b 618 501 582 444 618 465 b 546 574 618 525 606 574 z m 161 514 l 161 514 b 89 441 113 514 89 478 b 161 381 89 405 125 381 b 341 297 234 381 294 358 b 161 514 341 297 270 514 z m 363 686 l 363 686 b 260 685 329 720 286 711 b 271 591 236 659 245 617 b 341 405 323 542 350 481 b 363 686 341 405 441 611 z "},"\\":{"ha":692,"x_min":0,"x_max":0,"o":"m 117 228 l 117 228 b 153 170 147 228 153 207 b 117 112 153 134 147 112 b 106 113 113 112 109 112 l 106 227 b 117 228 110 228 113 228 z m 293 186 l 247 186 l 247 226 l 301 226 l 301 255 l 213 255 l 213 87 l 301 87 l 301 115 l 247 115 l 247 159 l 293 159 z m 115 84 l 115 84 b 186 170 167 84 186 111 b 116 257 186 228 168 257 b 73 252 104 257 88 255 l 73 87 b 115 84 88 84 105 84 z m 331 255 l 331 255 b 323 87 328 214 324 141 l 355 87 b 358 207 355 126 356 168 l 359 207 l 382 112 l 413 112 l 436 207 b 440 87 439 168 440 126 l 473 87 b 466 255 471 141 469 214 l 420 255 l 398 162 l 376 255 z m 558 84 l 558 84 b 620 170 604 84 620 111 b 558 257 620 229 604 257 b 497 170 512 257 497 229 b 558 84 497 111 512 84 z m 558 228 b 587 170 582 228 587 208 b 558 112 587 133 582 112 b 530 170 535 112 530 133 b 558 228 530 208 535 228 z m 546 574 l 546 574 b 366 358 450 574 366 358 b 558 441 414 405 475 432 b 618 501 582 444 618 465 b 546 574 618 525 606 574 z m 161 514 l 161 514 b 89 441 113 514 89 478 b 161 381 89 405 125 381 b 341 297 234 381 294 358 b 161 514 341 297 270 514 z m 363 686 l 363 686 b 260 685 329 720 286 711 b 271 591 236 659 245 617 b 341 405 323 542 350 481 b 363 686 341 405 441 611 z "},"]":{"ha":692,"x_min":0,"x_max":0,"o":"m 117 228 l 117 228 b 153 170 147 228 153 207 b 117 112 153 134 147 112 b 106 113 113 112 109 112 l 106 227 b 117 228 110 228 113 228 z m 293 186 l 247 186 l 247 226 l 301 226 l 301 255 l 213 255 l 213 87 l 301 87 l 301 115 l 247 115 l 247 159 l 293 159 z m 115 84 l 115 84 b 186 170 167 84 186 111 b 116 257 186 228 168 257 b 73 252 104 257 88 255 l 73 87 b 115 84 88 84 105 84 z m 331 255 l 331 255 b 323 87 328 214 324 141 l 355 87 b 358 207 355 126 356 168 l 359 207 l 382 112 l 413 112 l 436 207 b 440 87 439 168 440 126 l 473 87 b 466 255 471 141 469 214 l 420 255 l 398 162 l 376 255 z m 558 84 l 558 84 b 620 170 604 84 620 111 b 558 257 620 229 604 257 b 497 170 512 257 497 229 b 558 84 497 111 512 84 z m 558 228 b 587 170 582 228 587 208 b 558 112 587 133 582 112 b 530 170 535 112 530 133 b 558 228 530 208 535 228 z m 546 574 l 546 574 b 366 358 450 574 366 358 b 558 441 414 405 475 432 b 618 501 582 444 618 465 b 546 574 618 525 606 574 z m 161 514 l 161 514 b 89 441 113 514 89 478 b 161 381 89 405 125 381 b 341 297 234 381 294 358 b 161 514 341 297 270 514 z m 363 686 l 363 686 b 260 685 329 720 286 711 b 271 591 236 659 245 617 b 341 405 323 542 350 481 b 363 686 341 405 441 611 z "},"^":{"ha":692,"x_min":0,"x_max":0,"o":"m 117 228 l 117 228 b 153 170 147 228 153 207 b 117 112 153 134 147 112 b 106 113 113 112 109 112 l 106 227 b 117 228 110 228 113 228 z m 293 186 l 247 186 l 247 226 l 301 226 l 301 255 l 213 255 l 213 87 l 301 87 l 301 115 l 247 115 l 247 159 l 293 159 z m 115 84 l 115 84 b 186 170 167 84 186 111 b 116 257 186 228 168 257 b 73 252 104 257 88 255 l 73 87 b 115 84 88 84 105 84 z m 331 255 l 331 255 b 323 87 328 214 324 141 l 355 87 b 358 207 355 126 356 168 l 359 207 l 382 112 l 413 112 l 436 207 b 440 87 439 168 440 126 l 473 87 b 466 255 471 141 469 214 l 420 255 l 398 162 l 376 255 z m 558 84 l 558 84 b 620 170 604 84 620 111 b 558 257 620 229 604 257 b 497 170 512 257 497 229 b 558 84 497 111 512 84 z m 558 228 b 587 170 582 228 587 208 b 558 112 587 133 582 112 b 530 170 535 112 530 133 b 558 228 530 208 535 228 z m 546 574 l 546 574 b 366 358 450 574 366 358 b 558 441 414 405 475 432 b 618 501 582 444 618 465 b 546 574 618 525 606 574 z m 161 514 l 161 514 b 89 441 113 514 89 478 b 161 381 89 405 125 381 b 341 297 234 381 294 358 b 161 514 341 297 270 514 z m 363 686 l 363 686 b 260 685 329 720 286 711 b 271 591 236 659 245 617 b 341 405 323 542 350 481 b 363 686 341 405 441 611 z "},"_":{"ha":692,"x_min":0,"x_max":0,"o":"m 117 228 l 117 228 b 153 170 147 228 153 207 b 117 112 153 134 147 112 b 106 113 113 112 109 112 l 106 227 b 117 228 110 228 113 228 z m 293 186 l 247 186 l 247 226 l 301 226 l 301 255 l 213 255 l 213 87 l 301 87 l 301 115 l 247 115 l 247 159 l 293 159 z m 115 84 l 115 84 b 186 170 167 84 186 111 b 116 257 186 228 168 257 b 73 252 104 257 88 255 l 73 87 b 115 84 88 84 105 84 z m 331 255 l 331 255 b 323 87 328 214 324 141 l 355 87 b 358 207 355 126 356 168 l 359 207 l 382 112 l 413 112 l 436 207 b 440 87 439 168 440 126 l 473 87 b 466 255 471 141 469 214 l 420 255 l 398 162 l 376 255 z m 558 84 l 558 84 b 620 170 604 84 620 111 b 558 257 620 229 604 257 b 497 170 512 257 497 229 b 558 84 497 111 512 84 z m 558 228 b 587 170 582 228 587 208 b 558 112 587 133 582 112 b 530 170 535 112 530 133 b 558 228 530 208 535 228 z m 546 574 l 546 574 b 366 358 450 574 366 358 b 558 441 414 405 475 432 b 618 501 582 444 618 465 b 546 574 618 525 606 574 z m 161 514 l 161 514 b 89 441 113 514 89 478 b 161 381 89 405 125 381 b 341 297 234 381 294 358 b 161 514 341 297 270 514 z m 363 686 l 363 686 b 260 685 329 720 286 711 b 271 591 236 659 245 617 b 341 405 323 542 350 481 b 363 686 341 405 441 611 z "},"`":{"ha":692,"x_min":0,"x_max":0,"o":"m 117 228 l 117 228 b 153 170 147 228 153 207 b 117 112 153 134 147 112 b 106 113 113 112 109 112 l 106 227 b 117 228 110 228 113 228 z m 293 186 l 247 186 l 247 226 l 301 226 l 301 255 l 213 255 l 213 87 l 301 87 l 301 115 l 247 115 l 247 159 l 293 159 z m 115 84 l 115 84 b 186 170 167 84 186 111 b 116 257 186 228 168 257 b 73 252 104 257 88 255 l 73 87 b 115 84 88 84 105 84 z m 331 255 l 331 255 b 323 87 328 214 324 141 l 355 87 b 358 207 355 126 356 168 l 359 207 l 382 112 l 413 112 l 436 207 b 440 87 439 168 440 126 l 473 87 b 466 255 471 141 469 214 l 420 255 l 398 162 l 376 255 z m 558 84 l 558 84 b 620 170 604 84 620 111 b 558 257 620 229 604 257 b 497 170 512 257 497 229 b 558 84 497 111 512 84 z m 558 228 b 587 170 582 228 587 208 b 558 112 587 133 582 112 b 530 170 535 112 530 133 b 558 228 530 208 535 228 z m 546 574 l 546 574 b 366 358 450 574 366 358 b 558 441 414 405 475 432 b 618 501 582 444 618 465 b 546 574 618 525 606 574 z m 161 514 l 161 514 b 89 441 113 514 89 478 b 161 381 89 405 125 381 b 341 297 234 381 294 358 b 161 514 341 297 270 514 z m 363 686 l 363 686 b 260 685 329 720 286 711 b 271 591 236 659 245 617 b 341 405 323 542 350 481 b 363 686 341 405 441 611 z "},"a":{"ha":1130,"x_min":0,"x_max":0,"o":"m 848 0 l 1118 0 l 748 972 l 382 972 l 12 0 l 281 0 l 336 152 l 794 152 z m 405 347 l 542 727 l 589 727 l 725 347 z "},"b":{"ha":1028,"x_min":0,"x_max":0,"o":"m 832 508 l 832 523 b 964 720 911 560 964 615 b 595 972 964 853 878 972 l 46 972 l 46 0 l 589 0 b 993 274 881 0 993 116 b 832 508 993 389 934 463 z m 573 771 b 714 672 668 771 714 733 b 573 578 714 615 668 578 l 308 578 l 308 771 z m 583 203 l 308 203 l 308 422 l 583 422 b 729 316 679 422 729 380 b 583 203 729 251 679 203 z "},"c":{"ha":1086,"x_min":0,"x_max":0,"o":"m 566 -32 b 1057 368 789 -32 1014 66 l 808 368 b 566 193 771 248 682 193 b 288 486 409 193 288 313 b 566 779 288 660 409 779 b 808 606 682 779 771 726 l 1057 606 b 566 1005 1014 907 788 1005 b 29 486 248 1005 29 794 b 566 -32 29 179 248 -32 z "},"d":{"ha":1067,"x_min":0,"x_max":0,"o":"m 507 972 l 46 972 l 46 0 l 507 0 b 1032 486 891 0 1032 209 b 507 972 1032 764 891 972 z m 507 220 l 308 220 l 309 753 l 507 753 b 771 486 675 753 771 663 b 507 220 771 310 675 220 z "},"e":{"ha":931,"x_min":0,"x_max":0,"o":"m 46 0 l 884 0 l 884 212 l 308 212 l 308 396 l 863 396 l 863 578 l 308 578 l 308 760 l 884 760 l 884 972 l 46 972 z "},"f":{"ha":929,"x_min":0,"x_max":0,"o":"m 46 0 l 308 0 l 308 365 l 853 365 l 853 558 l 308 558 l 308 755 l 883 755 l 883 972 l 46 972 z "},"g":{"ha":1122,"x_min":0,"x_max":0,"o":"m 1069 522 l 557 522 l 557 362 l 816 362 b 571 193 784 226 650 193 b 288 486 411 193 288 313 b 578 779 288 660 409 779 b 799 652 686 779 767 727 l 1058 652 b 573 1005 1010 902 791 1005 b 29 486 247 1005 29 794 b 551 -32 29 179 256 -32 b 912 137 723 -32 845 38 l 916 0 l 1069 0 z "},"h":{"ha":1063,"x_min":0,"x_max":0,"o":"m 755 972 l 755 595 l 308 595 l 308 972 l 46 972 l 46 0 l 308 0 l 308 377 l 755 377 l 755 0 l 1016 0 l 1016 972 z "},"i":{"ha":354,"x_min":0,"x_max":0,"o":"m 46 0 l 308 0 l 308 972 l 46 972 z "},"j":{"ha":922,"x_min":0,"x_max":0,"o":"m 449 -32 b 876 404 714 -32 876 81 l 876 972 l 616 972 l 616 392 b 454 190 616 228 532 190 b 295 362 370 190 295 230 l 35 362 b 449 -32 31 63 207 -32 z "},"k":{"ha":1045,"x_min":0,"x_max":0,"o":"m 1049 0 l 627 541 l 1029 972 l 736 972 l 324 534 l 307 534 l 307 972 l 46 972 l 46 0 l 307 0 l 307 220 l 463 383 l 480 383 l 779 0 z "},"l":{"ha":895,"x_min":0,"x_max":0,"o":"m 46 0 l 854 0 l 854 219 l 308 219 l 308 972 l 46 972 z "},"m":{"ha":1203,"x_min":0,"x_max":0,"o":"m 46 0 l 296 0 l 296 534 l 318 534 l 501 0 l 701 0 l 884 534 l 906 534 l 906 0 l 1156 0 l 1156 972 l 824 972 l 611 333 l 591 333 l 378 972 l 46 972 z "},"n":{"ha":1081,"x_min":0,"x_max":0,"o":"m 46 0 l 301 0 l 301 611 l 325 611 l 740 0 l 1035 0 l 1035 972 l 780 972 l 780 361 l 757 361 l 348 972 l 46 972 z "},"o":{"ha":1138,"x_min":0,"x_max":0,"o":"m 569 -32 b 1109 486 892 -32 1109 179 b 569 1005 1109 794 892 1005 b 29 486 245 1005 29 794 b 569 -32 29 179 245 -32 z m 569 193 b 288 486 411 193 288 308 b 569 779 288 666 411 779 b 851 486 727 779 851 666 b 569 193 851 308 727 193 z "},"p":{"ha":1012,"x_min":0,"x_max":0,"o":"m 46 0 l 308 0 l 308 244 l 571 244 b 977 609 831 244 977 367 b 569 972 977 851 831 972 l 46 972 z m 308 462 l 308 755 l 551 755 b 715 609 652 755 715 706 b 550 462 715 512 652 462 z "},"q":{"ha":1138,"x_min":0,"x_max":0,"o":"m 1109 495 b 569 1005 1109 794 892 1005 b 29 486 245 1005 29 794 b 569 -32 29 179 245 -32 b 809 23 656 -32 742 -8 l 958 -115 b 1104 35 1013 -69 1060 -22 l 975 166 b 1109 495 1058 252 1109 361 z m 288 486 b 569 779 288 666 411 779 b 851 486 727 779 851 666 b 569 193 851 308 727 193 b 288 486 411 193 288 308 z "},"r":{"ha":1031,"x_min":0,"x_max":0,"o":"m 1006 0 l 822 330 b 979 617 916 385 979 483 b 573 972 979 853 836 972 l 46 972 l 46 0 l 308 0 l 308 277 l 598 277 l 748 0 z m 308 755 l 557 755 b 719 615 662 755 719 706 b 557 475 719 523 662 475 l 308 475 z "},"s":{"ha":987,"x_min":0,"x_max":0,"o":"m 487 -32 b 961 275 800 -34 961 75 b 532 575 961 519 720 542 l 427 594 b 300 694 337 609 300 645 b 484 800 300 758 360 800 b 699 667 622 800 685 747 l 933 667 b 488 1005 933 920 751 1005 b 49 706 205 1005 49 892 b 429 411 49 483 244 442 l 551 390 b 701 284 660 373 701 339 b 487 174 701 218 628 172 b 259 309 334 174 265 227 l 23 309 b 487 -32 20 73 177 -32 z "},"t":{"ha":1061,"x_min":0,"x_max":0,"o":"m 1021 972 l 41 972 l 41 755 l 400 755 l 400 0 l 661 0 l 661 755 l 1021 755 z "},"u":{"ha":1053,"x_min":0,"x_max":0,"o":"m 527 -32 b 1007 412 838 -32 1007 109 l 1007 972 l 747 972 l 747 418 b 527 188 747 274 675 188 b 309 418 378 188 309 274 l 309 972 l 46 972 l 46 411 b 527 -32 46 109 215 -32 z "},"v":{"ha":1130,"x_min":0,"x_max":0,"o":"m 382 0 l 748 0 l 1118 972 l 848 972 l 581 247 l 550 247 l 281 972 l 12 972 z "},"w":{"ha":1456,"x_min":0,"x_max":0,"o":"m 234 0 l 587 0 l 716 565 l 740 565 l 869 0 l 1222 0 l 1429 972 l 1166 972 l 1028 279 l 1005 279 l 834 972 l 622 972 l 451 279 l 428 279 l 291 972 l 27 972 z "},"x":{"ha":1029,"x_min":0,"x_max":0,"o":"m 6 0 l 292 0 l 502 311 l 527 311 l 737 0 l 1023 0 l 681 486 l 681 500 l 1015 972 l 733 972 l 527 674 l 502 674 l 297 972 l 14 972 l 351 500 l 351 486 z "},"y":{"ha":1073,"x_min":0,"x_max":0,"o":"m 1067 972 l 792 972 l 549 560 l 524 560 l 282 972 l 6 972 l 406 309 l 406 0 l 667 0 l 667 308 z "},"z":{"ha":941,"x_min":0,"x_max":0,"o":"m 29 0 l 905 0 l 905 219 l 360 219 l 360 238 l 912 762 l 912 972 l 43 972 l 43 755 l 576 755 l 576 734 l 29 212 z "},"{":{"ha":692,"x_min":0,"x_max":0,"o":"m 117 228 l 117 228 b 153 170 147 228 153 207 b 117 112 153 134 147 112 b 106 113 113 112 109 112 l 106 227 b 117 228 110 228 113 228 z m 293 186 l 247 186 l 247 226 l 301 226 l 301 255 l 213 255 l 213 87 l 301 87 l 301 115 l 247 115 l 247 159 l 293 159 z m 115 84 l 115 84 b 186 170 167 84 186 111 b 116 257 186 228 168 257 b 73 252 104 257 88 255 l 73 87 b 115 84 88 84 105 84 z m 331 255 l 331 255 b 323 87 328 214 324 141 l 355 87 b 358 207 355 126 356 168 l 359 207 l 382 112 l 413 112 l 436 207 b 440 87 439 168 440 126 l 473 87 b 466 255 471 141 469 214 l 420 255 l 398 162 l 376 255 z m 558 84 l 558 84 b 620 170 604 84 620 111 b 558 257 620 229 604 257 b 497 170 512 257 497 229 b 558 84 497 111 512 84 z m 558 228 b 587 170 582 228 587 208 b 558 112 587 133 582 112 b 530 170 535 112 530 133 b 558 228 530 208 535 228 z m 546 574 l 546 574 b 366 358 450 574 366 358 b 558 441 414 405 475 432 b 618 501 582 444 618 465 b 546 574 618 525 606 574 z m 161 514 l 161 514 b 89 441 113 514 89 478 b 161 381 89 405 125 381 b 341 297 234 381 294 358 b 161 514 341 297 270 514 z m 363 686 l 363 686 b 260 685 329 720 286 711 b 271 591 236 659 245 617 b 341 405 323 542 350 481 b 363 686 341 405 441 611 z "},"|":{"ha":692,"x_min":0,"x_max":0,"o":"m 117 228 l 117 228 b 153 170 147 228 153 207 b 117 112 153 134 147 112 b 106 113 113 112 109 112 l 106 227 b 117 228 110 228 113 228 z m 293 186 l 247 186 l 247 226 l 301 226 l 301 255 l 213 255 l 213 87 l 301 87 l 301 115 l 247 115 l 247 159 l 293 159 z m 115 84 l 115 84 b 186 170 167 84 186 111 b 116 257 186 228 168 257 b 73 252 104 257 88 255 l 73 87 b 115 84 88 84 105 84 z m 331 255 l 331 255 b 323 87 328 214 324 141 l 355 87 b 358 207 355 126 356 168 l 359 207 l 382 112 l 413 112 l 436 207 b 440 87 439 168 440 126 l 473 87 b 466 255 471 141 469 214 l 420 255 l 398 162 l 376 255 z m 558 84 l 558 84 b 620 170 604 84 620 111 b 558 257 620 229 604 257 b 497 170 512 257 497 229 b 558 84 497 111 512 84 z m 558 228 b 587 170 582 228 587 208 b 558 112 587 133 582 112 b 530 170 535 112 530 133 b 558 228 530 208 535 228 z m 546 574 l 546 574 b 366 358 450 574 366 358 b 558 441 414 405 475 432 b 618 501 582 444 618 465 b 546 574 618 525 606 574 z m 161 514 l 161 514 b 89 441 113 514 89 478 b 161 381 89 405 125 381 b 341 297 234 381 294 358 b 161 514 341 297 270 514 z m 363 686 l 363 686 b 260 685 329 720 286 711 b 271 591 236 659 245 617 b 341 405 323 542 350 481 b 363 686 341 405 441 611 z "},"}":{"ha":692,"x_min":0,"x_max":0,"o":"m 117 228 l 117 228 b 153 170 147 228 153 207 b 117 112 153 134 147 112 b 106 113 113 112 109 112 l 106 227 b 117 228 110 228 113 228 z m 293 186 l 247 186 l 247 226 l 301 226 l 301 255 l 213 255 l 213 87 l 301 87 l 301 115 l 247 115 l 247 159 l 293 159 z m 115 84 l 115 84 b 186 170 167 84 186 111 b 116 257 186 228 168 257 b 73 252 104 257 88 255 l 73 87 b 115 84 88 84 105 84 z m 331 255 l 331 255 b 323 87 328 214 324 141 l 355 87 b 358 207 355 126 356 168 l 359 207 l 382 112 l 413 112 l 436 207 b 440 87 439 168 440 126 l 473 87 b 466 255 471 141 469 214 l 420 255 l 398 162 l 376 255 z m 558 84 l 558 84 b 620 170 604 84 620 111 b 558 257 620 229 604 257 b 497 170 512 257 497 229 b 558 84 497 111 512 84 z m 558 228 b 587 170 582 228 587 208 b 558 112 587 133 582 112 b 530 170 535 112 530 133 b 558 228 530 208 535 228 z m 546 574 l 546 574 b 366 358 450 574 366 358 b 558 441 414 405 475 432 b 618 501 582 444 618 465 b 546 574 618 525 606 574 z m 161 514 l 161 514 b 89 441 113 514 89 478 b 161 381 89 405 125 381 b 341 297 234 381 294 358 b 161 514 341 297 270 514 z m 363 686 l 363 686 b 260 685 329 720 286 711 b 271 591 236 659 245 617 b 341 405 323 542 350 481 b 363 686 341 405 441 611 z "},"~":{"ha":692,"x_min":0,"x_max":0,"o":"m 117 228 l 117 228 b 153 170 147 228 153 207 b 117 112 153 134 147 112 b 106 113 113 112 109 112 l 106 227 b 117 228 110 228 113 228 z m 293 186 l 247 186 l 247 226 l 301 226 l 301 255 l 213 255 l 213 87 l 301 87 l 301 115 l 247 115 l 247 159 l 293 159 z m 115 84 l 115 84 b 186 170 167 84 186 111 b 116 257 186 228 168 257 b 73 252 104 257 88 255 l 73 87 b 115 84 88 84 105 84 z m 331 255 l 331 255 b 323 87 328 214 324 141 l 355 87 b 358 207 355 126 356 168 l 359 207 l 382 112 l 413 112 l 436 207 b 440 87 439 168 440 126 l 473 87 b 466 255 471 141 469 214 l 420 255 l 398 162 l 376 255 z m 558 84 l 558 84 b 620 170 604 84 620 111 b 558 257 620 229 604 257 b 497 170 512 257 497 229 b 558 84 497 111 512 84 z m 558 228 b 587 170 582 228 587 208 b 558 112 587 133 582 112 b 530 170 535 112 530 133 b 558 228 530 208 535 228 z m 546 574 l 546 574 b 366 358 450 574 366 358 b 558 441 414 405 475 432 b 618 501 582 444 618 465 b 546 574 618 525 606 574 z m 161 514 l 161 514 b 89 441 113 514 89 478 b 161 381 89 405 125 381 b 341 297 234 381 294 358 b 161 514 341 297 270 514 z m 363 686 l 363 686 b 260 685 329 720 286 711 b 271 591 236 659 245 617 b 341 405 323 542 350 481 b 363 686 341 405 441 611 z "}}}
